<?xml version="1.0" encoding="utf-8"?>
<!-- Generator: Adobe Illustrator 18.1.0, SVG Export Plug-In . SVG Version: 6.00 Build 0)  -->
<svg version="1.1" id="Layer_1" xmlns="http://www.w3.org/2000/svg" xmlns:xlink="http://www.w3.org/1999/xlink" x="0px" y="0px"
	 width="250px" height="250px" viewBox="0 0 250 250" enable-background="new 0 0 250 250" xml:space="preserve">
<circle fill="#F1EDE6" cx="125" cy="125" r="125"/>
<g>
	<circle fill="#735AA2" cx="51.7" cy="125" r="16"/>
	<circle fill="#F47A00" cx="193.6" cy="87.9" r="15.6"/>
	<circle fill="#F47A00" cx="193.6" cy="162.1" r="15.6"/>
	<g>
		<path fill="#735AA2" d="M164.3,171.3h-28.9l-35-35.7H83.2c-5.5,0-9.9-4.5-9.9-9.9c0-5.5,4.5-9.9,9.9-9.9h25.5l35,35.7h20.6
			c5.5,0,9.9,4.5,9.9,9.9S169.8,171.3,164.3,171.3z"/>
	</g>
	<g>
		<path fill="#735AA2" d="M108.8,135.6H83.2c-5.5,0-9.9-4.5-9.9-9.9c0-5.5,4.5-9.9,9.9-9.9h17.1l34-35.5h29c5.5,0,9.9,4.5,9.9,9.9
			s-4.5,9.9-9.9,9.9h-20.5L108.8,135.6z"/>
	</g>
</g>
</svg>
